#!OML:ASF Y:\EmotionMaleHayes\Project 1\Capture day 1\Session 1\Male1.ASF
:FULLY-SPECIFIED
:DEGREES
79
root -25.6281 15.9126 1.6555 -36.3812 88.3655 -47.7314
lowerback 15.3079 2.82292 0.693565
upperback 6.95023 4.12798 -2.4672
thorax -0.963833 2.27509 -3.62251
lowerneck -22.8619 -0.494401 2.16334
upperneck 19.1307 -0.588624 -3.23449
head 9.82203 -0.486333 -1.57983
rclavicle -2.18663e-014 3.8763e-014
rhumerus -30.6458 25.3364 -95.1332
rradius 74.9967
rwrist -21.759
rhand -25.6706 -29.385
rfingers 7.12502
rthumb 0.863889 -59.363
lclavicle -2.18663e-014 3.8763e-014
lhumerus -50.4913 -7.08629 88.0036
lradius 32.4709
lwrist 25.4541
lhand -26.4612 -19.4357
lfingers 7.12502
lthumb 0.100274 10.544
rfemur 8.39304 0.473369 19.3398
rtibia 20.0717
rfoot -29.4072 -9.21071
rtoes -21.7007
lfemur -34.3321 2.79802 -17.4463
ltibia 47.457
lfoot -25.6989 5.48457
ltoes -23.2682
80
root -25.4416 15.9484 1.63059 -39.6576 87.9917 -50.9334
lowerback 15.2865 2.72468 0.888152
upperback 6.92193 4.0215 -2.48851
thorax -0.974516 2.22474 -3.73797
lowerneck -22.9243 -0.332659 2.26207
upperneck 19.2703 -0.399359 -3.22427
head 9.88869 -0.390147 -1.5669
rclavicle 2.38542e-015 -1.86858e-014
rhumerus -31.8691 24.9433 -95.5156
rradius 74.4266
rwrist -22.7783
rhand -24.5027 -30.1122
rfingers 7.12502
rthumb 1.99189 -60.0827
lclavicle 2.38542e-015 -1.86858e-014
lhumerus -49.3865 -6.72109 87.6475
lradius 32.3283
lwrist 25.7152
lhand -27.6104 -18.4474
lfingers 7.12502
lthumb -1.00962 11.5299
rfemur 6.71661 1.34117 20.1177
rtibia 24.3187
rfoot -27.9171 -9.61208
rtoes -19.7026
lfemur -32.6678 2.26446 -17.0233
ltibia 46.0128
lfoot -25.9762 5.85517
ltoes -22.9865
81
root -25.2562 16.001 1.59203 -28.6954 88.3734 -40.0239
lowerback 15.2316 2.57002 0.615748
upperback 6.87101 3.77617 -2.83613
thorax -1.00848 2.1035 -3.91189
lowerneck -23.0882 -0.158082 2.56393
upperneck 19.462 -0.258076 -3.23974
head 9.9903 -0.30449 -1.6049
rclavicle -1.19271e-015 3.18055e-014
rhumerus -32.8754 24.3529 -95.9657
rradius 73.3716
rwrist -24.033
rhand -24.2492 -29.6679
rfingers 7.12502
rthumb 2.23671 -59.6359
lclavicle -1.19271e-015 3.18055e-014
lhumerus -48.0313 -6.60982 87.2111
lradius 31.9677
lwrist 26.1803
lhand -28.4021 -19.0545
lfingers 7.12502
lthumb -1.77424 10.9179
rfemur 4.57984 1.38667 19.5843
rtibia 29.0458
rfoot -25.5391 -9.70802
rtoes -16.8505
lfemur -30.9492 1.37879 -17.7861
ltibia 44.1732
lfoot -25.9346 6.09535
ltoes -22.1574
82
root -25.0732 16.0629 1.55679 -16.5826 88.6815 -27.8165
lowerback 14.919 2.41355 -0.048719
upperback 7.12801 3.50932 -2.73697
thorax -0.63771 1.96665 -3.3646
lowerneck -23.0691 -0.0296863 2.36539
upperneck 19.3933 0.0315637 -3.41776
head 9.97265 -0.207972 -1.59106
rclavicle 1.2921e-014 -7.15625e-015
rhumerus -33.4137 24.3372 -95.723
rradius 71.9054
rwrist -25.3797
rhand -24.0601 -29.1126
rfingers 7.12502
rthumb 2.41935 -59.0787
lclavicle 1.2921e-014 -7.15625e-015
lhumerus -46.0863 -5.51709 86.9422
lradius 31.4145
lwrist 26.3869
lhand -28.6882 -20.3477
lfingers 7.12502
lthumb -2.05053 9.62221
rfemur 2.25685 1.26255 19.1249
rtibia 33.9922
rfoot -22.3583 -9.70812
rtoes -11.1805
lfemur -29.1001 0.532378 -18.4103
ltibia 42.3776
lfoot -25.9531 6.18547
ltoes -20.9859
83
root -24.8882 16.1317 1.52889 3.71509 88.6695 -7.30779
lowerback 14.8304 2.25974 -0.730868
upperback 7.3501 3.2436 -2.78348
thorax -0.404993 1.82906 -2.97809
lowerneck -23.5071 0.203049 2.29801
upperneck 19.694 0.369521 -3.3931
head 10.1707 -0.0579839 -1.52679
rclavicle -6.32135e-014 2.94201e-014
rhumerus -33.9111 24.4321 -95.7123
rradius 70.2277
rwrist -26.3781
rhand -23.6722 -29.8319
rfingers 7.12502
rthumb 2.79393 -59.7934
lclavicle -6.32135e-014 2.94201e-014
lhumerus -44.1338 -4.26386 86.4816
lradius 31.2268
lwrist 26.3157
lhand -28.9208 -20.3501
lfingers 7.12502
lthumb -2.27522 9.61751
rfemur -0.105581 1.46588 18.6661
rtibia 38.8173
rfoot -18.8993 -9.43009
rtoes 0.469759
lfemur -27.0765 -0.0401628 -19.0141
ltibia 40.562
lfoot -26.1046 6.33765
ltoes -20.4356
84
root -24.6993 16.204 1.50215 25.8661 88.3404 15.0116
lowerback 15.0024 2.24225 -1.59002
upperback 7.25843 3.09865 -2.89485
thorax -0.635063 1.73637 -2.60288
lowerneck -22.925 0.207865 1.78283
upperneck 19.7322 0.441801 -2.87326
head 10.08 0.00568821 -1.24271
rclavicle 9.93923e-015 2.0276e-014
rhumerus -34.94 24.3346 -95.8668
rradius 68.5149
rwrist -27.0884
rhand -23.3041 -30.6373
rfingers 7.12502
rthumb 3.14938 -60.5938
lclavicle 9.93923e-015 2.0276e-014
lhumerus -42.592 -3.5987 86.3422
lradius 31.1248
lwrist 26.2633
lhand -29.2342 -20.5781
lfingers 7.12502
lthumb -2.57791 9.38602
rfemur -2.56161 1.69953 18.0253
rtibia 43.4232
rfoot -14.2096 -9.70937
rtoes 6.59057
lfemur -24.9627 -0.399339 -19.8282
ltibia 38.4843
lfoot -26.0981 6.70412
ltoes -20.9525
85
root -24.5134 16.2771 1.47684 42.4228 87.6009 31.6775
lowerback 15.1309 2.26991 -2.51174
upperback 7.15576 3.00223 -3.25093
thorax -0.835485 1.6758 -2.45438
lowerneck -23.168 0.379385 2.06658
upperneck 20.3742 0.596055 -2.86339
head 10.3605 0.100602 -1.26913
rclavicle 1.74931e-014 -8.74653e-015
rhumerus -35.7039 24.081 -96.2162
rradius 66.4243
rwrist -27.6595
rhand -22.913 -30.4535
rfingers 7.12502
rthumb 3.52712 -60.4041
lclavicle 1.74931e-014 -8.74653e-015
lhumerus -41.0737 -3.69634 86.2431
lradius 31.2164
lwrist 26.629
lhand -29.6576 -21.1867
lfingers 7.12502
lthumb -2.98681 8.77209
rfemur -5.14292 1.62831 17.0179
rtibia 47.7687
rfoot -12.4974 -8.75461
rtoes 9.55109
lfemur -22.8735 -0.426367 -20.9523
ltibia 36.3139
lfoot -25.8771 6.98702
ltoes -22.2859
86
root -24.3328 16.3501 1.45301 52.6218 86.4293 41.9436
lowerback 15.0936 2.3801 -3.98
upperback 7.08341 2.95137 -3.50852
thorax -0.940327 1.62599 -1.89492
lowerneck -23.428 0.552582 2.26166
upperneck 21.0305 0.819384 -2.98731
head 10.6554 0.204051 -1.31796
rclavicle -9.14409e-015 4.21423e-014
rhumerus -36.3256 23.9832 -96.2885
rradius 64.0417
rwrist -27.8787
rhand -22.5309 -31.0913
rfingers 7.12502
rthumb 3.89611 -61.0355
lclavicle -9.14409e-015 4.21423e-014
lhumerus -39.604 -3.38839 86.2687
lradius 31.6938
lwrist 26.8725
lhand -29.6918 -21.1348
lfingers 7.12502
lthumb -3.01979 8.82359
rfemur -7.82345 1.33028 15.5704
rtibia 51.7771
rfoot -11.2447 -7.49563
rtoes 12.5115
lfemur -20.8836 -0.0829522 -22.4479
ltibia 34.2091
lfoot -25.5667 6.93253
ltoes -23.4883
87
root -24.1495 16.4207 1.42871 58.1659 85.1423 47.4752
lowerback 14.9828 2.46401 -5.53774
upperback 6.93445 2.85118 -3.75279
thorax -1.08443 1.55116 -1.26558
lowerneck -23.4093 0.701367 2.1499
upperneck 21.5281 1.03751 -2.79362
head 10.8404 0.322072 -1.19857
rclavicle -3.18055e-015 2.82274e-014
rhumerus -37.1347 23.8851 -96.3398
rradius 61.7717
rwrist -27.6518
rhand -22.163 -32.9574
rfingers 7.12502
rthumb 4.2514 -62.8947
lclavicle -3.18055e-015 2.82274e-014
lhumerus -38.7186 -2.82129 86.4028
lradius 32.569
lwrist 25.8897
lhand -30.476 -21.6856
lfingers 7.12502
lthumb -3.77712 8.26067
rfemur -10.562 1.00834 14.1255
rtibia 55.4424
rfoot -11.7239 -4.0056
rtoes 13.5649
lfemur -18.8926 0.365334 -24.0053
ltibia 31.9152
lfoot -25.2607 6.48931
ltoes -23.5231
88
root -23.9497 16.4925 1.41301 68.0441 83.995 57.6914
lowerback 15.0488 2.24531 -7.0924
upperback 6.99045 2.37873 -4.11766
thorax -1.073 1.30338 -0.710532
lowerneck -23.4721 0.904348 2.16142
upperneck 21.9686 1.2499 -2.4866
head 11.0195 0.460845 -1.05756
rclavicle -4.37326e-015 3.57812e-014
rhumerus -37.8221 23.9046 -96.5625
rradius 59.5946
rwrist -27.5367
rhand -22.3684 -34.1113
rfingers 7.12502
rthumb 4.05306 -64.0525
lclavicle -4.37326e-015 3.57812e-014
lhumerus -36.816 -2.52602 86.2091
lradius 32.8028
lwrist 25.7758
lhand -30.3209 -23.3162
lfingers 7.12502
lthumb -3.62736 6.63265
rfemur -12.3837 0.302006 12.5712
rtibia 57.9218
rfoot -12.0403 -1.60591
rtoes 13.7822
lfemur -16.4013 0.315054 -25.7385
ltibia 29.4942
lfoot -25.1068 5.50228
ltoes -22.1799
89
root -23.756 16.554 1.40005 73.0634 82.5761 62.9126
lowerback 15.0044 2.16821 -8.6968
upperback 6.969 2.08885 -4.56105
thorax -1.06925 1.1479 -0.242094
lowerneck -23.442 1.03752 2.31
upperneck 22.409 1.3318 -2.23139
head 11.1798 0.547657 -0.97764
rclavicle -1.27222e-014 1.27222e-014
rhumerus -38.5677 23.7435 -96.7548
rradius 57.4585
rwrist -27.4561
rhand -22.7021 -34.1822
rfingers 7.12502
rthumb 3.73077 -64.1293
lclavicle -1.27222e-014 1.27222e-014
lhumerus -34.997 -3.40475 86.3784
lradius 33.1603
lwrist 25.6651
lhand -30.5774 -24.7657
lfingers 7.12502
lthumb -3.87508 5.17879
rfemur -14.5751 -0.462987 10.964
rtibia 59.8496
rfoot -11.7312 -0.136663
rtoes 10.514
lfemur -14.2118 0.561132 -27.4831
ltibia 27.2878
lfoot -24.9151 4.51627
ltoes -20.7388
90
root -23.5659 16.61 1.37756 72.6261 81.4891 62.4244
lowerback 14.7671 2.19799 -9.7272
upperback 6.87718 2.02161 -4.91897
thorax -1.03662 1.10689 -0.0352022
lowerneck -23.5354 1.15497 2.45967
upperneck 22.8152 1.39615 -2.01974
head 11.3514 0.620332 -0.915659
rclavicle 3.73715e-014 3.26007e-014
rhumerus -39.2886 23.4897 -96.8363
rradius 55.4915
rwrist -27.2447
rhand -22.9093 -34.2168
rfingers 7.12502
rthumb 3.53071 -64.1673
lclavicle 3.73715e-014 3.26007e-014
lhumerus -33.3351 -4.1514 86.3837
lradius 33.9836
lwrist 25.4937
lhand -30.0599 -24.7935
lfingers 7.12502
lthumb -3.37533 5.15954
rfemur -17.3191 -1.06309 9.97228
rtibia 61.862
rfoot -11.4322 1.22425
rtoes 8.01279
lfemur -12.3415 1.18341 -28.6122
ltibia 25.0185
lfoot -24.4811 3.79902
ltoes -20.5158
91
root -23.3688 16.6678 1.34822 72.633 80.8729 62.4171
lowerback 14.528 2.05871 -10.2697
upperback 6.83582 1.80243 -5.10739
thorax -0.936124 0.991055 0.106167
lowerneck -23.5407 1.34595 2.60321
upperneck 23.0637 1.58712 -1.89845
head 11.4519 0.737289 -0.86394
rclavicle -2.26615e-014 -3.97569e-015
rhumerus -40.005 23.5466 -96.8862
rradius 53.6658
rwrist -27.0579
rhand -23.3635 -34.6306
rfingers 7.12502
rthumb 3.09205 -64.588
lclavicle -2.26615e-014 -3.97569e-015
lhumerus -31.7559 -4.87197 86.4348
lradius 35.0587
lwrist 25.3062
lhand -29.7926 -24.4477
lfingers 7.12502
lthumb -3.11721 5.50923
rfemur -19.8338 -1.80658 9.49412
rtibia 63.2604
rfoot -11.0574 2.22803
rtoes 6.97332
lfemur -10.3878 1.59638 -29.3222
ltibia 22.6527
lfoot -23.863 3.39314
ltoes -22.4513
92
root -23.1648 16.7353 1.3189 76.9274 80.3391 67.2607
lowerback 15.0234 1.705 -10.7795
upperback 6.89604 1.23064 -5.28888
thorax -1.08426 0.718214 0.26989
lowerneck -23.5032 1.55446 2.77197
upperneck 23.3559 1.79532 -1.76939
head 11.5621 0.866509 -0.810218
rclavicle 3.97569e-016 7.71285e-014
rhumerus -40.9674 23.6511 -96.9234
rradius 52.1656
rwrist -26.9707
rhand -23.6064 -35.3363
rfingers 7.12502
rthumb 2.85752 -65.2969
lclavicle 3.97569e-016 7.71285e-014
lhumerus -30.3411 -5.83812 86.4999
lradius 36.3073
lwrist 25.1484
lhand -29.8049 -24.4081
lfingers 7.12502
lthumb -3.12907 5.54867
rfemur -21.2545 -3.16257 8.85645
rtibia 64.0633
rfoot -11.4164 2.79043
rtoes 5.06027
lfemur -7.86295 1.42979 -30.2192
ltibia 20.3974
lfoot -23.1583 3.04203
ltoes -24.801
